<?xml version="1.0" encoding="iso-8859-1"?>
<!-- Generator: Adobe Illustrator 19.0.0, SVG Export Plug-In . SVG Version: 6.00 Build 0)  -->
<svg version="1.1" id="Layer_1" xmlns="http://www.w3.org/2000/svg" xmlns:xlink="http://www.w3.org/1999/xlink" x="0px" y="0px"
	 viewBox="0 0 512 512" style="enable-background:new 0 0 512 512;" xml:space="preserve">
<path style="fill:#9CDD05;" d="M88.884,304.9c12.231-15.848,27.38-29.33,44.636-39.637c7.173-4.285,14.707-8.023,22.55-11.15
	c7.7-3.072,15.696-5.554,23.929-7.399c-19.707-18.172-45.54-28.383-72.693-28.383C48.136,218.331,0,266.467,0,325.636
	c0,11.452,9.284,20.736,20.736,20.736h45.069c2.679-7.17,5.857-14.096,9.498-20.736C79.295,318.359,83.842,311.429,88.884,304.9z"/>
<path style="fill:#EFC27B;" d="M128.041,114.653c0-11.178,2.15-21.858,6.016-31.679c2.595-6.586,5.966-12.775,10.011-18.462
	c-10.307-7.578-23.018-12.067-36.765-12.067c-34.301,0-62.208,27.908-62.208,62.209s27.906,62.206,62.208,62.206
	c13.744,0,26.456-4.489,36.763-12.067c-4.044-5.687-7.417-11.879-10.01-18.462C130.191,136.508,128.041,125.829,128.041,114.653z"/>
<path style="fill:#A9A8AE;" d="M340.378,304.384h33.383v-34.56c0-19.056,15.504-34.56,34.56-34.56s34.56,15.504,34.56,34.56v34.56
	h41.472v-34.56c0-41.924-34.108-76.031-76.031-76.031s-76.031,34.108-76.031,76.031v24.937v9.623H340.378z"/>
<path style="fill:#FFB655;" d="M491.264,304.384h-6.912H442.88h-69.12h-33.383h-8.088h-6.912c-3.648,0-7.072,0.951-10.051,2.604
	c-6.37,3.539-10.684,10.329-10.684,18.131v1.015v54.972v20.736v20.736v40.781c0,11.452,9.284,20.736,20.736,20.736h165.887
	c11.452,0,20.736-9.284,20.736-20.736V325.12C512,313.668,502.716,304.384,491.264,304.384z"/>
<path style="fill:#EFC27B;" d="M144.069,64.511c-4.045,5.687-7.417,11.877-10.011,18.462c-3.867,9.82-6.016,20.501-6.016,31.679
	s2.15,21.857,6.016,31.677c2.593,6.584,5.966,12.775,10.01,18.462c15.734,22.128,41.559,36.604,70.719,36.604
	c47.832,0,86.745-38.913,86.745-86.745s-38.913-86.745-86.745-86.745C185.627,27.908,159.804,42.384,144.069,64.511z"/>
<path style="fill:#A4E276;" d="M304.641,381.107v-54.972v-1.015c0-7.802,4.314-14.594,10.685-18.131
	c2.978-1.653,6.403-2.604,10.051-2.604h6.912v-9.623c-29.908-32.84-72.346-51.894-117.503-51.894
	c-11.948,0-23.588,1.334-34.789,3.844c-8.232,1.844-16.228,4.327-23.929,7.399c-7.842,3.128-15.375,6.866-22.55,11.15
	c-17.256,10.307-32.405,23.79-44.636,39.637c-5.04,6.53-9.588,13.459-13.581,20.736c-3.641,6.64-6.821,13.565-9.498,20.736
	c-6.454,17.279-9.993,35.971-9.993,55.473c0,11.452,9.284,20.736,20.736,20.736H304.64v-20.736v-20.736H304.641z"/>
<path style="fill:#ECB45C;" d="M144.069,64.511c-4.045,5.687-7.417,11.877-10.011,18.462c-3.867,9.82-6.016,20.501-6.016,31.679
	s2.15,21.857,6.016,31.677c2.593,6.584,5.966,12.775,10.01,18.462c15.734,22.128,41.559,36.604,70.719,36.604V27.905
	C185.627,27.908,159.804,42.384,144.069,64.511z"/>
<path style="fill:#64C37D;" d="M179.997,246.714c-8.232,1.844-16.228,4.327-23.929,7.399c-7.842,3.128-15.375,6.866-22.55,11.15
	c-17.256,10.307-32.405,23.79-44.636,39.637c-5.04,6.53-9.588,13.459-13.581,20.736c-3.641,6.64-6.821,13.565-9.498,20.736
	c-6.454,17.279-9.993,35.971-9.993,55.473c0,11.452,9.284,20.736,20.736,20.736h138.239V242.869
	C202.838,242.868,191.2,244.202,179.997,246.714z"/>
<path style="fill:#ECB45C;" d="M45.096,114.653c0,34.301,27.906,62.206,62.208,62.206V52.444
	C73.003,52.444,45.096,80.35,45.096,114.653z"/>
<path style="fill:#FF9811;" d="M373.761,304.384h-33.383h-8.088h-6.912c-3.648,0-7.072,0.951-10.051,2.604
	c-6.37,3.539-10.684,10.329-10.684,18.131v1.015v54.972v20.736v20.736v40.781c0,11.452,9.284,20.736,20.736,20.736h82.943V304.384
	H373.761z"/>
<g>
</g>
<g>
</g>
<g>
</g>
<g>
</g>
<g>
</g>
<g>
</g>
<g>
</g>
<g>
</g>
<g>
</g>
<g>
</g>
<g>
</g>
<g>
</g>
<g>
</g>
<g>
</g>
<g>
</g>
</svg>
