<?xml version="1.0" encoding="iso-8859-1"?>
<!-- Generator: Adobe Illustrator 21.0.0, SVG Export Plug-In . SVG Version: 6.00 Build 0)  -->
<svg version="1.1" id="Capa_1" xmlns="http://www.w3.org/2000/svg" xmlns:xlink="http://www.w3.org/1999/xlink" x="0px" y="0px"
	 viewBox="0 0 512 512" style="enable-background:new 0 0 512 512;" xml:space="preserve">
<g>
	<g transform="translate(1 1)">
		<path style="fill:#607D8B;" d="M502.467,58.733v409.6c0,18.851-15.282,34.133-34.133,34.133H41.667
			c-18.851,0-34.133-15.282-34.133-34.133v-409.6H502.467z"/>
		<path style="fill:#CFD8DC;" d="M476.867,58.733v409.6c0,18.851-15.282,34.133-34.133,34.133H41.667
			c-18.851,0-34.133-15.282-34.133-34.133v-409.6H476.867z"/>
		<path style="fill:#1566C0;" d="M502.467,41.667V75.8H7.533V41.667c0-18.851,15.282-34.133,34.133-34.133h426.667
			C487.185,7.533,502.467,22.815,502.467,41.667z"/>
		<path style="fill:#2296F3;" d="M476.867,41.667V75.8H7.533V41.667c0-18.851,15.282-34.133,34.133-34.133h401.067
			C461.585,7.533,476.867,22.815,476.867,41.667z"/>
		<g>
			<polygon style="fill:#F44335;" points="135.533,186.733 50.2,306.2 135.533,306.2 135.533,272.067 			"/>
			<polygon style="fill:#F44335;" points="417.133,186.733 331.8,306.2 417.133,306.2 417.133,272.067 			"/>
		</g>
		<path style="fill:#C52828;" d="M229.4,178.2h42.667c14.138,0,25.6,11.462,25.6,25.6v136.533c0,14.138-11.462,25.6-25.6,25.6H229.4
			c-14.138,0-25.6-11.462-25.6-25.6V203.8C203.8,189.662,215.262,178.2,229.4,178.2z"/>
		<path style="fill:#F44335;" d="M229.4,178.2h17.067c14.138,0,25.6,11.462,25.6,25.6v136.533c0,14.138-11.462,25.6-25.6,25.6H229.4
			c-14.138,0-25.6-11.462-25.6-25.6V203.8C203.8,189.662,215.262,178.2,229.4,178.2z"/>
	</g>
	<g>
		<path d="M469.333,0H42.667C19.114,0.028,0.028,19.114,0,42.667v426.667C0.028,492.886,19.114,511.972,42.667,512h426.667
			c23.552-0.028,42.638-19.114,42.667-42.667V42.667C511.972,19.114,492.886,0.028,469.333,0z M42.667,17.067h426.667
			c14.138,0,25.6,11.462,25.6,25.6v25.6H17.067v-25.6C17.067,28.528,28.528,17.067,42.667,17.067z M469.333,494.933H42.667
			c-14.138,0-25.6-11.462-25.6-25.6v-384h477.867v384C494.933,483.472,483.472,494.933,469.333,494.933z"/>
		<path d="M51.2,51.2h8.533c4.713,0,8.533-3.821,8.533-8.533s-3.821-8.533-8.533-8.533H51.2c-4.713,0-8.533,3.821-8.533,8.533
			S46.487,51.2,51.2,51.2z"/>
		<path d="M87.808,48.725c2.442,2.443,6.126,3.153,9.301,1.792c1.033-0.435,1.985-1.041,2.816-1.792
			c0.751-0.831,1.357-1.783,1.792-2.816c0.91-2.066,0.91-4.419,0-6.485c-0.433-1.034-1.039-1.986-1.792-2.816
			c-3.422-3.157-8.695-3.157-12.117,0c-0.753,0.83-1.359,1.782-1.792,2.816c-0.911,2.066-0.911,4.419,0,6.485
			C86.451,46.942,87.057,47.894,87.808,48.725z"/>
		<path d="M124.757,50.517c2.066,0.911,4.419,0.911,6.485,0c1.043-0.414,1.999-1.022,2.816-1.792
			c1.602-1.607,2.493-3.789,2.475-6.059c0.025-1.119-0.209-2.229-0.683-3.243c-0.433-1.034-1.039-1.986-1.792-2.816
			c-3.422-3.157-8.695-3.157-12.117,0c-0.753,0.83-1.359,1.782-1.792,2.816c-1.361,3.175-0.651,6.859,1.792,9.301
			C122.771,49.478,123.724,50.084,124.757,50.517z"/>
		<path d="M170.667,51.2H460.8c4.713,0,8.533-3.821,8.533-8.533s-3.82-8.533-8.533-8.533H170.667c-4.713,0-8.533,3.821-8.533,8.533
			S165.954,51.2,170.667,51.2z"/>
		<path d="M179.2,307.2c0-4.713-3.821-8.533-8.533-8.533H67.14L128,207.36v65.707c0,4.713,3.821,8.533,8.533,8.533
			s8.533-3.82,8.533-8.533V179.2c0-0.282-0.137-0.512-0.162-0.794c-0.051-0.58-0.165-1.152-0.341-1.707
			c-0.154-0.508-0.357-0.999-0.606-1.468c-0.242-0.464-0.528-0.904-0.853-1.314c-0.366-0.456-0.781-0.871-1.237-1.237
			c-0.213-0.179-0.333-0.418-0.563-0.572c-0.23-0.154-0.478-0.162-0.708-0.29c-0.512-0.276-1.053-0.497-1.613-0.657
			c-0.537-0.165-1.088-0.276-1.647-0.333c-0.264-0.068-0.532-0.122-0.802-0.162c-0.282,0-0.529,0.137-0.802,0.162
			c-0.579,0.058-1.15,0.172-1.707,0.341c-0.503,0.155-0.992,0.355-1.459,0.597c-0.475,0.257-0.924,0.56-1.34,0.905
			c-0.444,0.367-0.853,0.776-1.22,1.22c-0.171,0.213-0.418,0.341-0.572,0.572l-85.333,128c-1.747,2.619-1.911,5.986-0.426,8.762
			c1.485,2.776,4.377,4.508,7.525,4.508h119.467C175.38,315.733,179.2,311.913,179.2,307.2z"/>
		<path d="M136.533,332.8c-4.713,0-8.533,3.82-8.533,8.533v25.6c0,4.713,3.821,8.533,8.533,8.533s8.533-3.82,8.533-8.533v-25.6
			C145.067,336.621,141.246,332.8,136.533,332.8z"/>
		<path d="M452.267,298.667H348.74l60.86-91.307v65.707c0,4.713,3.82,8.533,8.533,8.533s8.533-3.82,8.533-8.533V179.2
			c0-0.282-0.137-0.512-0.162-0.794c-0.051-0.58-0.165-1.152-0.341-1.707c-0.154-0.508-0.357-0.999-0.606-1.468
			c-0.242-0.464-0.528-0.904-0.853-1.314c-0.366-0.456-0.781-0.871-1.237-1.237c-0.213-0.179-0.333-0.418-0.563-0.572
			c-0.23-0.154-0.478-0.162-0.708-0.29c-0.512-0.276-1.053-0.497-1.613-0.657c-0.537-0.165-1.088-0.276-1.647-0.333
			c-0.264-0.068-0.532-0.122-0.802-0.162c-0.282,0-0.529,0.137-0.802,0.162c-0.579,0.056-1.151,0.171-1.707,0.341
			c-0.508,0.152-1,0.355-1.468,0.606c-0.474,0.251-0.92,0.551-1.331,0.896c-0.451,0.363-0.863,0.772-1.229,1.22
			c-0.171,0.213-0.418,0.341-0.572,0.572l-85.333,128c-1.748,2.62-1.911,5.989-0.424,8.766c1.487,2.776,4.382,4.507,7.532,4.504
			h119.467c4.713,0,8.533-3.82,8.533-8.533S456.98,298.667,452.267,298.667z"/>
		<path d="M418.133,332.8c-4.713,0-8.533,3.82-8.533,8.533v25.6c0,4.713,3.82,8.533,8.533,8.533s8.533-3.82,8.533-8.533v-25.6
			C426.667,336.621,422.846,332.8,418.133,332.8z"/>
		<path d="M230.4,375.467h42.667c18.851,0,34.133-15.282,34.133-34.133V204.8c0-18.851-15.282-34.133-34.133-34.133H230.4
			c-18.851,0-34.133,15.282-34.133,34.133v136.533C196.267,360.185,211.549,375.467,230.4,375.467z M213.333,204.8
			c0-9.426,7.641-17.067,17.067-17.067h42.667c9.426,0,17.067,7.641,17.067,17.067v136.533c0,9.426-7.641,17.067-17.067,17.067
			H230.4c-9.426,0-17.067-7.641-17.067-17.067V204.8z"/>
		<path d="M341.333,418.133H170.667c-4.713,0-8.533,3.82-8.533,8.533s3.821,8.533,8.533,8.533h170.667
			c4.713,0,8.533-3.82,8.533-8.533S346.046,418.133,341.333,418.133z"/>
		<path d="M307.2,452.267H204.8c-4.713,0-8.533,3.82-8.533,8.533s3.821,8.533,8.533,8.533h102.4c4.713,0,8.533-3.82,8.533-8.533
			S311.913,452.267,307.2,452.267z"/>
	</g>
</g>
<g>
</g>
<g>
</g>
<g>
</g>
<g>
</g>
<g>
</g>
<g>
</g>
<g>
</g>
<g>
</g>
<g>
</g>
<g>
</g>
<g>
</g>
<g>
</g>
<g>
</g>
<g>
</g>
<g>
</g>
</svg>
