<?xml version="1.0" encoding="iso-8859-1"?>
<!-- Generator: Adobe Illustrator 19.0.0, SVG Export Plug-In . SVG Version: 6.00 Build 0)  -->
<svg version="1.1" id="Capa_1" xmlns="http://www.w3.org/2000/svg" xmlns:xlink="http://www.w3.org/1999/xlink" x="0px" y="0px"
	 viewBox="0 0 512.003 512.003" style="enable-background:new 0 0 512.003 512.003;" xml:space="preserve">
<path style="fill:#60312C;" d="M432.251,75c0-5.023-2.478-9.458-6.268-12.18c2.46-3.966,3.052-9.011,1.13-13.651
	s-5.908-7.79-10.452-8.854c0.755-4.605-0.629-9.493-4.18-13.044c-3.552-3.552-8.439-4.936-13.044-4.18
	c-1.065-4.543-4.214-8.53-8.854-10.452s-9.686-1.33-13.651,1.13c-2.722-3.79-7.157-6.268-12.18-6.268
	c-5.023,0-9.458,2.478-12.18,6.268c-3.966-2.46-9.011-3.052-13.651-1.13s-7.79,5.908-8.854,10.452
	c-4.605-0.755-9.493,0.629-13.044,4.18c-3.552,3.552-4.936,8.439-4.18,13.044c-4.543,1.065-8.53,4.214-10.452,8.854
	s-1.33,9.686,1.13,13.651c-3.79,2.722-6.268,7.157-6.268,12.18s2.478,9.458,6.268,12.18c-2.46,3.966-3.052,9.011-1.13,13.651
	s5.908,7.79,10.452,8.854c-0.755,4.605,0.629,9.493,4.18,13.044c3.693,3.693,8.833,5.058,13.596,4.094h68.268
	c4.762,0.964,9.902-0.401,13.596-4.094c3.552-3.552,4.936-8.439,4.18-13.044c4.543-1.065,8.53-4.214,10.452-8.854
	s1.33-9.686-1.13-13.651C429.773,84.458,432.251,80.023,432.251,75z"/>
<path style="fill:#85453D;" d="M364.751,52.5v90c24.853,0,45-20.147,45-45S389.604,52.5,364.751,52.5z"/>
<path style="fill:#A45E43;" d="M380.751,97.5c0-24.853-6.716-45-15-45c-24.853,0-45,20.147-45,45s20.147,45,45,45
	C374.035,142.5,380.751,122.353,380.751,97.5z"/>
<path style="fill:#60312C;" d="M364.751,262.5v75c24.853,0,45-20.147,45-45L364.751,262.5z"/>
<path style="fill:#85453D;" d="M379.751,292.5l-15-30l-45,30c0,24.853,20.147,45,45,45C373.035,337.5,379.751,317.353,379.751,292.5
	z"/>
<polygon style="fill:#FFCB63;" points="394.751,172.5 364.751,172.5 354.751,232.5 364.751,292.5 414.751,292.5 "/>
<polygon style="fill:#FFE2A8;" points="334.751,172.5 314.751,292.5 364.751,292.5 364.751,172.5 "/>
<path style="fill:#E18F4E;" d="M304.751,192.5v130c16.569,0,30-13.431,30-30v-120h-10C313.705,172.5,304.751,181.454,304.751,192.5z
	"/>
<path style="fill:#C27749;" d="M404.751,172.5h-10v120c0,16.569,13.431,30,30,30v-130C424.751,181.454,415.797,172.5,404.751,172.5z
	"/>
<rect x="107.25" y="172.47" style="fill:#FFFFFF;" width="50" height="74.979"/>
<path style="fill:#4F4F4F;" d="M157.251,172.47l-25,44.989h-30l30,60.011h45v-85C177.251,181.424,168.297,172.47,157.251,172.47z"/>
<path style="fill:#696969;" d="M107.251,172.47c-11.046,0-20,8.954-20,20v85h45v-60.011L107.251,172.47z"/>
<path style="fill:#C96F3D;" d="M142.251,7.5c-3.721,0-7.164,1.17-10,3.15c-2.836-1.98-6.279-3.15-10-3.15
	c-9.665,0-17.5,7.835-17.5,17.5c0,15.188,12.312,27.5,27.5,27.5s27.5-12.312,27.5-27.5C159.751,15.335,151.916,7.5,142.251,7.5z"/>
<path style="fill:#FFB4A9;" d="M132.251,52.5v90c24.853,0,45-20.147,45-45S157.104,52.5,132.251,52.5z"/>
<path style="fill:#FFD9D4;" d="M147.251,97.5c0-24.853-6.716-45-15-45c-24.853,0-45,20.147-45,45s20.147,45,45,45
	C140.535,142.5,147.251,122.353,147.251,97.5z"/>
<path style="fill:#353535;" d="M177.001,262.47h-30l15,90h30v-50.335C192.001,286.924,186.33,273.045,177.001,262.47z"/>
<path style="fill:#4F4F4F;" d="M147.001,262.47h-60c-9.329,10.575-15,24.454-15,39.665v50.335h90v-50.335
	C162.001,286.924,156.33,273.045,147.001,262.47z"/>
<path d="M482.251,242.5c0-29.486-22.313-53.846-50.938-57.115C428.169,173.66,417.454,165,404.751,165h-80
	c-15.163,0-27.5,12.336-27.5,27.5v130c0,4.142,3.357,7.5,7.5,7.5c6.827,0,13.227-1.843,18.747-5.043
	c1.179,1.497,2.43,2.925,3.753,4.275v159.863l-24.872,8.291c-3.93,1.31-6.053,5.557-4.743,9.487c1.048,3.143,3.974,5.13,7.114,5.13
	c0.786,0,1.586-0.125,2.373-0.387l30-10c3.062-1.021,5.128-3.887,5.128-7.115V339.92c6.919,3.287,14.582,5.08,22.5,5.08
	c7.918,0,15.581-1.793,22.5-5.08v149.175l-24.872,8.291c-3.93,1.31-6.053,5.557-4.743,9.487c1.048,3.143,3.974,5.13,7.114,5.13
	c0.786,0,1.586-0.125,2.373-0.387l30-10c3.062-1.021,5.128-3.887,5.128-7.115V329.232c1.323-1.35,2.574-2.778,3.753-4.275
	c5.52,3.2,11.92,5.043,18.747,5.043c4.143,0,7.5-3.358,7.5-7.5v-23.005C460.424,295.806,482.251,271.662,482.251,242.5z
	 M387.251,180v105h-45V180H387.251z M312.251,192.5c0-6.893,5.607-12.5,12.5-12.5h2.5v112.5c0,9.778-6.27,18.12-15,21.215V192.5z
	 M334.745,314.981c3.275-4.359,5.624-9.45,6.751-14.981h46.509c1.127,5.531,3.476,10.623,6.751,14.981
	c-7.03,9.37-18.117,15.019-30.006,15.019C352.861,330,341.776,324.352,334.745,314.981z M417.251,313.715
	c-8.73-3.095-15-11.437-15-21.215V180h2.5c6.893,0,12.5,5.607,12.5,12.5V313.715z M432.251,284.324v-83.647
	c19.868,3.554,35,20.949,35,41.824S452.119,280.77,432.251,284.324z"/>
<path d="M305.296,114.727c0.581,4.98,2.812,9.696,6.423,13.307c4.269,4.269,9.987,6.592,15.895,6.592
	c0.017,0,0.035-0.001,0.052-0.001C337.17,144.12,350.287,150,364.751,150c14.467,0,27.586-5.883,37.092-15.381
	c5.924,0.012,11.661-2.306,15.942-6.586c3.609-3.61,5.841-8.326,6.422-13.306c4.379-2.443,7.882-6.309,9.835-11.025
	c1.955-4.717,2.211-9.928,0.843-14.752c3.11-3.933,4.867-8.845,4.867-13.95s-1.757-10.017-4.867-13.95
	c1.368-4.824,1.112-10.035-0.843-14.751c-1.953-4.717-5.456-8.583-9.835-11.025c-0.581-4.98-2.812-9.697-6.422-13.306
	c-3.61-3.61-8.326-5.841-13.307-6.422c-2.443-4.378-6.31-7.882-11.025-9.836c-4.719-1.953-9.929-2.209-14.751-0.841
	C374.769,1.757,369.856,0,364.751,0s-10.019,1.757-13.95,4.868c-4.821-1.367-10.034-1.112-14.751,0.841
	c-4.717,1.954-8.583,5.458-11.026,9.836c-4.979,0.582-9.695,2.812-13.305,6.422s-5.842,8.326-6.423,13.307
	c-4.378,2.443-7.882,6.308-9.837,11.026c-1.953,4.717-2.209,9.927-0.841,14.75c-3.11,3.933-4.867,8.845-4.867,13.95
	s1.757,10.017,4.867,13.95c-1.368,4.824-1.112,10.034,0.842,14.752C297.414,108.418,300.917,112.284,305.296,114.727z M364.751,135
	c-20.678,0-37.5-16.822-37.5-37.5s16.822-37.5,37.5-37.5c20.678,0,37.5,16.822,37.5,37.5S385.429,135,364.751,135z M307.894,68.912
	c3.205-2.302,4.078-6.692,1.998-10.045c-1.296-2.09-1.505-4.579-0.574-6.827c0.933-2.25,2.84-3.862,5.234-4.423
	c3.841-0.9,6.328-4.622,5.69-8.516c-0.398-2.427,0.361-4.806,2.083-6.528c1.722-1.722,4.107-2.478,6.526-2.083
	c3.901,0.639,7.616-1.85,8.517-5.69c0.561-2.394,2.172-4.302,4.422-5.233c2.246-0.932,4.736-0.723,6.828,0.574
	c3.354,2.081,7.745,1.206,10.045-1.999c1.435-1.997,3.653-3.143,6.088-3.143s4.653,1.146,6.088,3.144
	c2.302,3.205,6.693,4.079,10.045,1.998c2.091-1.297,4.581-1.506,6.828-0.574c2.249,0.932,3.861,2.839,4.423,5.235
	c0.9,3.841,4.616,6.328,8.516,5.689c2.42-0.398,4.805,0.361,6.527,2.083c1.721,1.721,2.48,4.1,2.082,6.527
	c-0.638,3.894,1.85,7.616,5.69,8.516c2.394,0.561,4.302,2.172,5.233,4.423c0.932,2.249,0.723,4.737-0.573,6.827
	c-2.08,3.353-1.207,7.744,1.998,10.045c1.997,1.435,3.143,3.653,3.143,6.088s-1.146,4.654-3.144,6.089
	c-3.204,2.302-4.077,6.692-1.997,10.045c1.296,2.089,1.505,4.578,0.572,6.828c-0.632,1.527-1.722,2.75-3.101,3.56
	c0.101-1.329,0.169-2.667,0.169-4.021c0-28.949-23.552-52.5-52.5-52.5s-52.5,23.551-52.5,52.5c0,1.354,0.068,2.692,0.169,4.021
	c-1.38-0.81-2.47-2.033-3.103-3.561c-0.931-2.249-0.722-4.737,0.574-6.827c2.08-3.353,1.207-7.743-1.997-10.045
	c-1.998-1.435-3.144-3.654-3.144-6.089S305.896,70.347,307.894,68.912z"/>
<path d="M252.251,155h-15c-4.142,0-7.5,3.358-7.5,7.5s3.358,7.5,7.5,7.5h15c4.136,0,7.5,3.364,7.5,7.5s-3.364,7.5-7.5,7.5h-68.789
	c-3.21-11.355-13.543-19.743-25.848-20.015c-0.144-0.007-0.287-0.012-0.43-0.011c-0.061,0-0.121-0.005-0.182-0.005H107.2
	c-0.042,0-0.198,0-0.198,0c-12.715,0-23.439,8.677-26.571,20.418c-28.5,3.386-50.679,27.685-50.679,57.082
	c0,23.177,14.135,44.065,35.097,52.962c-0.221,2.219-0.347,4.454-0.347,6.703v50.335c0,4.142,3.358,7.5,7.5,7.5h22.25V494.5
	c0,3.228,2.066,6.094,5.128,7.115l30,10c0.787,0.262,1.586,0.387,2.373,0.387c3.14,0,6.066-1.988,7.114-5.13
	c1.31-3.93-0.814-8.177-4.744-9.487l-24.872-8.291V359.97h45.5V494.5c0,3.228,2.066,6.094,5.128,7.115l30,10
	c0.787,0.262,1.586,0.387,2.373,0.387c3.14,0,6.066-1.988,7.114-5.13c1.31-3.93-0.814-8.177-4.744-9.487l-24.872-8.291V359.97H192
	c4.142,0,7.5-3.358,7.5-7.5v-50.335c0-15.471-5.307-30.417-15-42.406V200h67.75c12.406,0,22.5-10.093,22.5-22.5
	S264.657,155,252.251,155z M169.501,192.47v62.5h-29.75v-35.557l21.492-38.686C166.051,182.469,169.501,187.068,169.501,192.47z
	 M132.251,202.026l-12.254-22.057h24.508L132.251,202.026z M103.174,180.574l21.577,38.838v35.557h-30.25V194.36
	c0.158-0.605,0.25-1.237,0.25-1.891c0-0.514-0.052-1.016-0.151-1.501C95.189,186.076,98.609,182.047,103.174,180.574z
	 M44.751,242.47c0-20.787,15.005-38.124,34.75-41.779v59.038c-5.023,6.212-8.856,13.222-11.395,20.683
	C54.049,273.283,44.751,258.632,44.751,242.47z M184.501,344.97h-105v-42.835c0-2.889,0.25-5.752,0.717-8.568
	c0.139-0.313,0.271-0.631,0.369-0.969c0.228-0.79,0.314-1.586,0.285-2.365c1.71-7.34,5-14.252,9.669-20.263h82.923
	c7.133,9.184,11.039,20.479,11.039,32.165v42.835H184.501z"/>
<path d="M229.751,74.051V132.5c0,4.142,3.358,7.5,7.5,7.5h22.5c4.143,0,7.5-3.358,7.5-7.5s-3.357-7.5-7.5-7.5h-15v-15h15
	c4.143,0,7.5-3.358,7.5-7.5s-3.357-7.5-7.5-7.5h-15V74.051c12.925-3.339,22.5-15.098,22.5-29.051c0-16.542-13.458-30-30-30
	s-30,13.458-30,30C207.251,58.953,216.826,70.712,229.751,74.051z M237.251,30c8.271,0,15,6.729,15,15s-6.729,15-15,15
	s-15-6.729-15-15S228.98,30,237.251,30z"/>
<path d="M132.251,150c28.949,0,52.5-23.551,52.5-52.5c0-20.41-11.715-38.124-28.766-46.806c6.922-6.398,11.266-15.547,11.266-25.694
	c0-13.785-11.215-25-25-25c-3.476,0-6.865,0.713-10,2.088c-3.135-1.375-6.524-2.088-10-2.088c-13.785,0-25,11.215-25,25
	c0,10.147,4.344,19.296,11.266,25.694C91.466,59.376,79.751,77.09,79.751,97.5C79.751,126.449,103.302,150,132.251,150z M112.251,25
	c0-5.514,4.486-10,10-10c2.047,0,4.021,0.622,5.707,1.799c2.579,1.801,6.008,1.801,8.587,0c1.686-1.177,3.659-1.799,5.707-1.799
	c5.514,0,10,4.486,10,10c0,11.028-8.972,20-20,20S112.251,36.028,112.251,25z M132.251,60c20.678,0,37.5,16.822,37.5,37.5
	s-16.822,37.5-37.5,37.5s-37.5-16.822-37.5-37.5S111.573,60,132.251,60z"/>
<g>
</g>
<g>
</g>
<g>
</g>
<g>
</g>
<g>
</g>
<g>
</g>
<g>
</g>
<g>
</g>
<g>
</g>
<g>
</g>
<g>
</g>
<g>
</g>
<g>
</g>
<g>
</g>
<g>
</g>
</svg>
