<svg height="512pt" viewBox="0 0 512 512" width="512pt" xmlns="http://www.w3.org/2000/svg"><path d="m512 256c0 141.386719-114.613281 256-256 256s-256-114.613281-256-256 114.613281-256 256-256 256 114.613281 256 256zm0 0" fill="#53edf5"/><path d="m511.664062 269.203125-154.609374-178.128906-163.597657 113.503906 66.609375 66.609375-175.433594 129.097656 102.269532 102.269532c21.980468 6.148437 45.152344 9.445312 69.097656 9.445312 136.957031 0 248.792969-107.550781 255.664062-242.796875zm0 0" fill="#33ccde"/><path d="m154.945312 91.074219h202.109376v249.304687h-202.109376zm0 0" fill="#fff"/><path d="m254.339844 91.074219h102.714844v249.304687h-102.714844zm0 0" fill="#e9edf5"/><g fill="#a7ddfa"><path d="m173.570312 222.71875h164.859376v15.851562h-164.859376zm0 0"/><path d="m173.570312 294.050781h164.859376v15.851563h-164.859376zm0 0"/><path d="m173.570312 115.722656h164.859376v15.851563h-164.859376zm0 0"/><path d="m173.570312 151.386719h164.859376v15.851562h-164.859376zm0 0"/><path d="m173.570312 187.054688h164.859376v15.851562h-164.859376zm0 0"/></g><path d="m254.339844 222.71875h84.089844v15.851562h-84.089844zm0 0" fill="#99d3f2"/><path d="m254.339844 294.050781h84.089844v15.851563h-84.089844zm0 0" fill="#99d3f2"/><path d="m254.339844 115.722656h84.089844v15.851563h-84.089844zm0 0" fill="#99d3f2"/><path d="m254.339844 151.386719h84.089844v15.851562h-84.089844zm0 0" fill="#99d3f2"/><path d="m254.339844 187.054688h84.089844v15.851562h-84.089844zm0 0" fill="#99d3f2"/><path d="m410.546875 407h-309.09375c-13.503906 0-24.453125-10.949219-24.453125-24.453125v-96.09375c0-13.503906 10.949219-24.453125 24.453125-24.453125h309.09375c13.503906 0 24.453125 10.949219 24.453125 24.453125v96.09375c0 13.503906-10.949219 24.453125-24.453125 24.453125zm0 0" fill="#2864f0"/><path d="m410.546875 262h-154.738281v145h154.738281c13.503906 0 24.453125-10.949219 24.453125-24.453125v-96.09375c0-13.503906-10.949219-24.453125-24.453125-24.453125zm0 0" fill="#27488f"/><path d="m169.023438 360.5h172.949218v19h-172.949218zm0 0" fill="#4a98f7"/><path d="m255.808594 360.5h86.167968v19h-86.167968zm0 0" fill="#4a7aff"/><path d="m106.796875 325.5h16.867187v19h-16.867187zm0 0" fill="#4a98f7"/><path d="m138.078125 325.5h16.867187v19h-16.867187zm0 0" fill="#4a98f7"/><path d="m169.359375 325.5h16.867187v19h-16.867187zm0 0" fill="#4a98f7"/><path d="m200.644531 325.5h16.867188v19h-16.867188zm0 0" fill="#4a98f7"/><path d="m231.925781 325.5h16.867188v19h-16.867188zm0 0" fill="#4a98f7"/><path d="m263.207031 325.5h16.867188v19h-16.867188zm0 0" fill="#4a7aff"/><path d="m294.488281 325.5h16.867188v19h-16.867188zm0 0" fill="#4a7aff"/><path d="m325.773438 325.5h16.867187v19h-16.867187zm0 0" fill="#4a7aff"/><path d="m357.054688 325.5h16.867187v19h-16.867187zm0 0" fill="#4a7aff"/><path d="m388.335938 325.5h16.867187v19h-16.867187zm0 0" fill="#4a7aff"/><path d="m106.796875 290.5h16.867187v19h-16.867187zm0 0" fill="#4a98f7"/><path d="m138.078125 290.5h16.867187v19h-16.867187zm0 0" fill="#4a98f7"/><path d="m169.359375 290.5h16.867187v19h-16.867187zm0 0" fill="#4a98f7"/><path d="m200.644531 290.5h16.867188v19h-16.867188zm0 0" fill="#4a98f7"/><path d="m231.925781 290.5h16.867188v19h-16.867188zm0 0" fill="#4a98f7"/><path d="m263.207031 290.5h16.867188v19h-16.867188zm0 0" fill="#4a7aff"/><path d="m294.488281 290.5h16.867188v19h-16.867188zm0 0" fill="#4a7aff"/><path d="m325.773438 290.5h16.867187v19h-16.867187zm0 0" fill="#4a7aff"/><path d="m357.054688 290.5h16.867187v19h-16.867187zm0 0" fill="#4a7aff"/><path d="m388.335938 290.5h16.867187v19h-16.867187zm0 0" fill="#4a7aff"/><path d="m106.796875 360.5h16.867187v19h-16.867187zm0 0" fill="#4a98f7"/><path d="m138.078125 360.5h16.867187v19h-16.867187zm0 0" fill="#4a98f7"/><path d="m357.054688 360.5h16.867187v19h-16.867187zm0 0" fill="#4a7aff"/><path d="m388.335938 360.5h16.867187v19h-16.867187zm0 0" fill="#4a7aff"/></svg>